<svg width="50" height="50" viewBox="0 0 50 50" fill="none" xmlns="http://www.w3.org/2000/svg">
<rect width="50" height="50" rx="10" fill="#0B2F44"/>
<path d="M21.6 15.0426V34.1113L21.6061 34.1172C21.6792 35.418 22.4409 36.5371 23.55 37.1523V39.0625C23.55 39.3672 23.5988 39.666 23.6963 39.8887L18.1875 38.1777L12.6483 39.9531C12.3497 40.0469 12.0218 39.9473 11.7671 39.7715C11.513 39.5957 11.3625 39.3613 11.3625 39.0625V37.1875C11.3625 36.9004 11.4972 36.6309 11.7281 36.4551L14.775 34.1113V29.3535L7.25531 31.5215C6.95977 31.6094 6.64045 31.5566 6.39299 31.375C6.1457 31.1992 6 30.9238 6 30.625V26.875C6 26.5469 6.1797 26.2422 6.47336 26.0723L14.775 21.2793V15.0426C14.775 13.2039 16.3228 10 18.1875 10C20.107 10 21.6 13.2039 21.6 15.0426ZM23.55 20.3125C23.55 18.7598 24.8602 17.5 26.475 17.5H42.075C43.6898 17.5 45 18.7598 45 20.3125V33.4375C45 34.6621 44.1834 35.7051 43.05 36.0918V38.5938C43.05 39.373 42.398 40 41.5875 40H40.6125C39.802 40 39.15 39.373 39.15 38.5938V36.25H29.4V38.5938C29.4 39.373 28.748 40 27.9375 40H26.9625C26.152 40 25.5 39.373 25.5 38.5938V36.0918C24.3666 35.7051 23.55 34.6621 23.55 33.4375V20.3125ZM28.4128 24.9238L27.45 27.8125H41.1L40.1372 24.9238C39.9361 24.4141 39.4486 24.0625 38.888 24.0625H29.662C29.1014 24.0625 28.6139 24.4141 28.4128 24.9238ZM40.6125 33.4375C41.423 33.4375 42.075 32.8105 42.075 32.0312C42.075 31.252 41.423 30.625 40.6125 30.625C39.802 30.625 39.15 31.252 39.15 32.0312C39.15 32.8105 39.802 33.4375 40.6125 33.4375ZM27.9375 30.625C27.127 30.625 26.475 31.252 26.475 32.0312C26.475 32.8105 27.127 33.4375 27.9375 33.4375C28.748 33.4375 29.4 32.8105 29.4 32.0312C29.4 31.252 28.748 30.625 27.9375 30.625Z" fill="white"/>
</svg>
